<?xml version="1.0" encoding="utf-8" standalone="no"?>
<!DOCTYPE svg PUBLIC "-//W3C//DTD SVG 1.1//EN"
  "http://www.w3.org/Graphics/SVG/1.1/DTD/svg11.dtd">
<svg xmlns:xlink="http://www.w3.org/1999/xlink" width="442.7165pt" height="340.858253pt" viewBox="0 0 442.7165 340.858253" xmlns="http://www.w3.org/2000/svg" version="1.1">
 <metadata>
  <rdf:RDF xmlns:dc="http://purl.org/dc/elements/1.1/" xmlns:cc="http://creativecommons.org/ns#" xmlns:rdf="http://www.w3.org/1999/02/22-rdf-syntax-ns#">
   <cc:Work>
    <dc:type rdf:resource="http://purl.org/dc/dcmitype/StillImage"/>
    <dc:date>2025-08-20T17:42:29.010152</dc:date>
    <dc:format>image/svg+xml</dc:format>
    <dc:creator>
     <cc:Agent>
      <dc:title>Matplotlib v3.5.3, https://matplotlib.org/</dc:title>
     </cc:Agent>
    </dc:creator>
   </cc:Work>
  </rdf:RDF>
 </metadata>
 <defs>
  <style type="text/css">*{stroke-linejoin: round; stroke-linecap: butt}</style>
 </defs>
 <g id="figure_1">
  <g id="patch_1">
   <path d="M 0 340.858253 
L 442.7165 340.858253 
L 442.7165 0 
L 0 0 
z
" style="fill: #ffffff"/>
  </g>
  <g id="axes_1">
   <g id="patch_2">
    <path d="M 303.127384 170.429127 
C 303.127384 152.228341 299.542226 134.204536 292.577087 117.389203 
C 285.611948 100.57387 275.402282 85.294025 262.532384 72.424127 
C 249.662485 59.554228 234.382641 49.344562 217.567308 42.379423 
C 200.751975 35.414285 182.728169 31.829127 164.527384 31.829127 
C 146.326599 31.829127 128.302793 35.414285 111.48746 42.379423 
C 94.672127 49.344562 79.392283 59.554228 66.522384 72.424127 
C 53.652485 85.294025 43.44282 100.57387 36.477681 117.389203 
C 29.512542 134.204536 25.927384 152.228341 25.927384 170.429127 
C 25.927384 188.629912 29.512542 206.653717 36.477681 223.46905 
C 43.44282 240.284383 53.652485 255.564228 66.522384 268.434127 
C 79.392283 281.304025 94.672127 291.513691 111.48746 298.47883 
C 128.302793 305.443969 146.326599 309.029127 164.527384 309.029127 
C 182.728169 309.029127 200.751975 305.443969 217.567308 298.47883 
C 234.382641 291.513691 249.662485 281.304025 262.532384 268.434127 
C 275.402282 255.564228 285.611948 240.284383 292.577087 223.46905 
C 299.542226 206.653717 303.127384 188.629912 303.127384 170.429127 
M 164.527384 170.429127 
C 164.527384 170.429127 164.527384 170.429127 164.527384 170.429127 
C 164.527384 170.429127 164.527384 170.429127 164.527384 170.429127 
C 164.527384 170.429127 164.527384 170.429127 164.527384 170.429127 
C 164.527384 170.429127 164.527384 170.429127 164.527384 170.429127 
C 164.527384 170.429127 164.527384 170.429127 164.527384 170.429127 
C 164.527384 170.429127 164.527384 170.429127 164.527384 170.429127 
C 164.527384 170.429127 164.527384 170.429127 164.527384 170.429127 
C 164.527384 170.429127 164.527384 170.429127 164.527384 170.429127 
C 164.527384 170.429127 164.527384 170.429127 164.527384 170.429127 
C 164.527384 170.429127 164.527384 170.429127 164.527384 170.429127 
C 164.527384 170.429127 164.527384 170.429127 164.527384 170.429127 
C 164.527384 170.429127 164.527384 170.429127 164.527384 170.429127 
C 164.527384 170.429127 164.527384 170.429127 164.527384 170.429127 
C 164.527384 170.429127 164.527384 170.429127 164.527384 170.429127 
C 164.527384 170.429127 164.527384 170.429127 164.527384 170.429127 
C 164.527384 170.429127 164.527384 170.429127 164.527384 170.429127 
M 303.127384 170.429127 
z
" style="fill: #ffffff"/>
   </g>
   <g id="matplotlib.axis_1">
    <g id="xtick_1">
     <g id="line2d_1">
      <path d="M 164.527384 170.429127 
L 164.527384 31.829127 
" clip-path="url(#p135cfc28f0)" style="fill: none; stroke-dasharray: 2.96,1.28; stroke-dashoffset: 0; stroke: #cccccc; stroke-width: 0.8"/>
     </g>
     <g id="text_1">
      <!-- R -->
      <g style="fill: #808080" transform="translate(159.211381 18.007327)scale(0.16 -0.16)">
       <defs>
        <path id="NimbusRomNo9L-Regu-52" d="M 4218 121 
C 3974 140 3846 205 3661 424 
L 2342 2061 
C 2771 2143 2963 2219 3174 2388 
C 3379 2553 3501 2818 3501 3113 
C 3501 3385 3418 3618 3251 3801 
C 3008 4059 2477 4224 1875 4224 
L 109 4224 
L 109 4102 
C 589 4051 653 3981 653 3528 
L 653 765 
C 653 236 589 159 109 121 
L 109 0 
L 1882 0 
L 1882 134 
C 1389 134 1306 219 1306 692 
L 1306 1984 
L 1664 1984 
L 3187 0 
L 4218 0 
L 4218 121 
z
M 1306 3762 
C 1306 3937 1376 3987 1632 3987 
C 2432 3987 2803 3716 2803 3123 
C 2803 2807 2669 2542 2438 2423 
C 2144 2258 1920 2221 1306 2221 
L 1306 3762 
z
" transform="scale(0.015625)"/>
       </defs>
       <use xlink:href="#NimbusRomNo9L-Regu-52" transform="scale(0.996264)"/>
      </g>
     </g>
    </g>
    <g id="xtick_2">
     <g id="line2d_2">
      <path d="M 164.527384 170.429127 
L 284.558505 101.129127 
" clip-path="url(#p135cfc28f0)" style="fill: none; stroke-dasharray: 2.96,1.28; stroke-dashoffset: 0; stroke: #cccccc; stroke-width: 0.8"/>
     </g>
     <g id="text_2">
      <!-- R$^2$ -->
      <g style="fill: #808080" transform="translate(291.448984 96.057327)scale(0.16 -0.16)">
       <defs>
        <path id="NimbusRomNo9L-Regu-32" d="M 3040 875 
L 2957 907 
C 2720 544 2637 486 2349 486 
L 819 486 
L 1894 1609 
C 2464 2202 2714 2687 2714 3185 
C 2714 3823 2195 4313 1530 4313 
C 1178 4313 845 4173 608 3918 
C 403 3700 307 3496 198 3043 
L 333 3011 
C 589 3636 819 3840 1261 3840 
C 1798 3840 2163 3476 2163 2940 
C 2163 2443 1869 1850 1331 1282 
L 192 77 
L 192 0 
L 2688 0 
L 3040 875 
z
" transform="scale(0.015625)"/>
       </defs>
       <use xlink:href="#NimbusRomNo9L-Regu-52" transform="scale(0.996264)"/>
       <use xlink:href="#NimbusRomNo9L-Regu-32" transform="translate(66.450031 36.163231)scale(0.737241)"/>
      </g>
     </g>
    </g>
    <g id="xtick_3">
     <g id="line2d_3">
      <path d="M 164.527384 170.429127 
L 284.558505 239.729127 
" clip-path="url(#p135cfc28f0)" style="fill: none; stroke-dasharray: 2.96,1.28; stroke-dashoffset: 0; stroke: #cccccc; stroke-width: 0.8"/>
     </g>
     <g id="text_3">
      <!-- RMSE -->
      <g style="fill: #808080" transform="translate(278.011528 252.157327)scale(0.16 -0.16)">
       <defs>
        <path id="NimbusRomNo9L-Regu-4d" d="M 4314 3667 
L 4314 751 
C 4314 217 4237 134 3731 134 
L 3731 0 
L 5523 0 
L 5523 134 
C 5056 134 4966 223 4966 681 
L 4966 3536 
C 4966 3993 5050 4077 5523 4115 
L 5523 4237 
L 4250 4237 
L 2835 1004 
L 1357 4237 
L 90 4237 
L 90 4096 
C 614 4096 698 4019 698 3550 
L 698 943 
C 698 282 608 159 77 121 
L 77 0 
L 1581 0 
L 1581 134 
C 1088 134 979 282 979 931 
L 979 3520 
L 2586 0 
L 2675 0 
L 4314 3667 
z
" transform="scale(0.015625)"/>
        <path id="NimbusRomNo9L-Regu-53" d="M 2861 4352 
L 2726 4352 
C 2701 4205 2630 4135 2522 4135 
C 2458 4135 2349 4160 2240 4212 
C 2003 4301 1766 4352 1562 4352 
C 1286 4352 1005 4244 794 4058 
C 570 3859 454 3590 454 3256 
C 454 2743 736 2385 1453 2006 
C 1914 1763 2246 1499 2406 1256 
C 2464 1173 2496 1038 2496 884 
C 2496 454 2176 160 1709 160 
C 1139 160 736 513 416 1296 
L 269 1296 
L 461 -64 
L 602 -64 
C 608 57 685 147 781 147 
C 851 147 960 122 1082 79 
C 1325 -14 1581 -64 1837 -64 
C 2573 -64 3142 442 3142 1101 
C 3142 1626 2790 2042 1946 2496 
C 1274 2868 1005 3149 1005 3495 
C 1005 3847 1274 4090 1670 4090 
C 1958 4090 2227 3968 2451 3738 
C 2650 3533 2739 3367 2842 2989 
L 3002 2989 
L 2861 4352 
z
" transform="scale(0.015625)"/>
        <path id="NimbusRomNo9L-Regu-45" d="M 3821 1078 
L 3642 1078 
C 3322 389 3046 237 2131 237 
L 1958 237 
C 1645 237 1376 269 1331 315 
C 1299 334 1286 404 1286 514 
L 1286 2106 
L 2272 2106 
C 2797 2106 2893 2020 2976 1472 
L 3123 1472 
L 3123 2957 
L 2976 2957 
C 2931 2703 2906 2610 2835 2523 
C 2752 2417 2573 2368 2272 2368 
L 1286 2368 
L 1286 3766 
C 1286 3943 1325 3981 1498 3981 
L 2362 3981 
C 3085 3981 3226 3886 3334 3314 
L 3494 3314 
L 3475 4224 
L 77 4224 
L 77 4102 
C 550 4064 634 3974 634 3525 
L 634 679 
C 634 230 544 134 77 134 
L 77 0 
L 3533 0 
L 3821 1078 
z
" transform="scale(0.015625)"/>
       </defs>
       <use xlink:href="#NimbusRomNo9L-Regu-52" transform="scale(0.996264)"/>
       <use xlink:href="#NimbusRomNo9L-Regu-4d" transform="translate(66.450031 0)scale(0.996264)"/>
       <use xlink:href="#NimbusRomNo9L-Regu-53" transform="translate(155.016938 0)scale(0.996264)"/>
       <use xlink:href="#NimbusRomNo9L-Regu-45" transform="translate(210.408615 0)scale(0.996264)"/>
      </g>
     </g>
    </g>
    <g id="xtick_4">
     <g id="line2d_4">
      <path d="M 164.527384 170.429127 
L 164.527384 309.029127 
" clip-path="url(#p135cfc28f0)" style="fill: none; stroke-dasharray: 2.96,1.28; stroke-dashoffset: 0; stroke: #cccccc; stroke-width: 0.8"/>
     </g>
     <g id="text_4">
      <!-- MAE -->
      <g style="fill: #808080" transform="translate(146.8179 330.207327)scale(0.16 -0.16)">
       <defs>
        <path id="NimbusRomNo9L-Regu-41" d="M 4518 128 
C 4230 128 4166 192 3942 667 
L 2349 4320 
L 2221 4320 
L 890 1168 
C 480 231 403 128 96 128 
L 96 0 
L 1363 0 
L 1363 128 
C 1056 128 928 212 928 393 
C 928 470 947 560 979 645 
L 1274 1401 
L 2950 1401 
L 3213 778 
C 3290 602 3334 434 3334 342 
C 3334 180 3226 128 2886 128 
L 2886 0 
L 4518 0 
L 4518 128 
z
M 1382 1664 
L 2118 3416 
L 2861 1664 
L 1382 1664 
z
" transform="scale(0.015625)"/>
       </defs>
       <use xlink:href="#NimbusRomNo9L-Regu-4d" transform="scale(0.996264)"/>
       <use xlink:href="#NimbusRomNo9L-Regu-41" transform="translate(88.566907 0)scale(0.996264)"/>
       <use xlink:href="#NimbusRomNo9L-Regu-45" transform="translate(160.496892 0)scale(0.996264)"/>
      </g>
     </g>
    </g>
    <g id="xtick_5">
     <g id="line2d_5">
      <path d="M 164.527384 170.429127 
L 44.496263 239.729127 
" clip-path="url(#p135cfc28f0)" style="fill: none; stroke-dasharray: 2.96,1.28; stroke-dashoffset: 0; stroke: #cccccc; stroke-width: 0.8"/>
     </g>
     <g id="text_5">
      <!-- MAPE -->
      <g style="fill: #808080" transform="translate(7.2 252.157327)scale(0.16 -0.16)">
       <defs>
        <path id="NimbusRomNo9L-Regu-50" d="M 1293 1875 
C 1459 1856 1568 1856 1734 1856 
C 2234 1856 2579 1919 2854 2072 
C 3238 2274 3469 2660 3469 3078 
C 3469 3344 3379 3584 3206 3768 
C 2950 4047 2394 4224 1792 4224 
L 102 4224 
L 102 4102 
C 576 4051 640 3987 640 3528 
L 640 766 
C 640 230 589 166 102 122 
L 102 0 
L 1894 0 
L 1894 128 
C 1389 128 1293 218 1293 693 
L 1293 1875 
z
M 1293 3772 
C 1293 3943 1338 3987 1510 3987 
C 2374 3987 2771 3690 2771 3040 
C 2771 2428 2394 2112 1658 2112 
C 1530 2112 1440 2119 1293 2131 
L 1293 3772 
z
" transform="scale(0.015625)"/>
       </defs>
       <use xlink:href="#NimbusRomNo9L-Regu-4d" transform="scale(0.996264)"/>
       <use xlink:href="#NimbusRomNo9L-Regu-41" transform="translate(88.566907 0)scale(0.996264)"/>
       <use xlink:href="#NimbusRomNo9L-Regu-50" transform="translate(160.496892 0)scale(0.996264)"/>
       <use xlink:href="#NimbusRomNo9L-Regu-45" transform="translate(215.888569 0)scale(0.996264)"/>
      </g>
     </g>
    </g>
    <g id="xtick_6">
     <g id="line2d_6">
      <path d="M 164.527384 170.429127 
L 44.496263 101.129127 
" clip-path="url(#p135cfc28f0)" style="fill: none; stroke-dasharray: 2.96,1.28; stroke-dashoffset: 0; stroke: #cccccc; stroke-width: 0.8"/>
     </g>
     <g id="text_6">
      <!-- MSE -->
      <g style="fill: #808080" transform="translate(12.954399 96.057327)scale(0.16 -0.16)">
       <use xlink:href="#NimbusRomNo9L-Regu-4d" transform="scale(0.996264)"/>
       <use xlink:href="#NimbusRomNo9L-Regu-53" transform="translate(88.566907 0)scale(0.996264)"/>
       <use xlink:href="#NimbusRomNo9L-Regu-45" transform="translate(143.958584 0)scale(0.996264)"/>
      </g>
     </g>
    </g>
   </g>
   <g id="matplotlib.axis_2">
    <g id="ytick_1">
     <g id="line2d_7">
      <path d="M 164.527384 144.76246 
C 167.8979 144.76246 171.235641 145.426378 174.349592 146.716219 
C 177.463543 148.006059 180.293143 149.896738 182.676458 152.280053 
C 185.059773 154.663367 186.950451 157.492968 188.240292 160.606919 
C 189.530132 163.720869 190.194051 167.058611 190.194051 170.429127 
C 190.194051 173.799642 189.530132 177.137384 188.240292 180.251335 
C 186.950451 183.365285 185.059773 186.194886 182.676458 188.578201 
C 180.293143 190.961515 177.463543 192.852194 174.349592 194.142035 
C 171.235641 195.431875 167.8979 196.095793 164.527384 196.095793 
C 161.156868 196.095793 157.819126 195.431875 154.705176 194.142035 
C 151.591225 192.852194 148.761624 190.961515 146.37831 188.578201 
C 143.994995 186.194886 142.104316 183.365285 140.814476 180.251335 
C 139.524635 177.137384 138.860717 173.799642 138.860717 170.429127 
C 138.860717 167.058611 139.524635 163.720869 140.814476 160.606919 
C 142.104316 157.492968 143.994995 154.663367 146.37831 152.280053 
C 148.761624 149.896738 151.591225 148.006059 154.705176 146.716219 
C 157.819126 145.426378 161.156868 144.76246 164.527384 144.76246 
" clip-path="url(#p135cfc28f0)" style="fill: none; stroke-dasharray: 2.96,1.28; stroke-dashoffset: 0; stroke: #cccccc; stroke-width: 0.8"/>
     </g>
     <g id="text_7">
      <!-- $\mathdefault{20}$ -->
      <g style="fill: #808080" transform="translate(164.527384 141.311534)scale(0.16 -0.16)">
       <defs>
        <path id="NimbusRomNo9L-Regu-30" d="M 1626 4352 
C 1274 4352 1005 4244 768 4020 
C 397 3661 154 2925 154 2176 
C 154 1479 365 730 666 372 
C 902 90 1229 -64 1600 -64 
C 1926 -64 2202 45 2432 269 
C 2803 621 3046 1364 3046 2138 
C 3046 3450 2464 4352 1626 4352 
z
M 1606 4186 
C 2144 4186 2432 3463 2432 2125 
C 2432 788 2150 103 1600 103 
C 1050 103 768 788 768 2119 
C 768 3476 1056 4186 1606 4186 
z
" transform="scale(0.015625)"/>
       </defs>
       <use xlink:href="#NimbusRomNo9L-Regu-32" transform="scale(0.996264)"/>
       <use xlink:href="#NimbusRomNo9L-Regu-30" transform="translate(49.8132 0)scale(0.996264)"/>
      </g>
     </g>
    </g>
    <g id="ytick_2">
     <g id="line2d_8">
      <path d="M 164.527384 119.095793 
C 171.268415 119.095793 177.943899 120.42363 184.1718 123.003311 
C 190.399701 125.582992 196.058903 129.364349 200.825532 134.130979 
C 205.592161 138.897608 209.373519 144.556809 211.9532 150.78471 
C 214.532881 157.012612 215.860717 163.688095 215.860717 170.429127 
C 215.860717 177.170158 214.532881 183.845642 211.9532 190.073543 
C 209.373519 196.301444 205.592161 201.960646 200.825532 206.727275 
C 196.058903 211.493904 190.399701 215.275262 184.1718 217.854943 
C 177.943899 220.434624 171.268415 221.76246 164.527384 221.76246 
C 157.786352 221.76246 151.110869 220.434624 144.882968 217.854943 
C 138.655067 215.275262 132.995865 211.493904 128.229236 206.727275 
C 123.462607 201.960646 119.681249 196.301444 117.101568 190.073543 
C 114.521887 183.845642 113.194051 177.170158 113.194051 170.429127 
C 113.194051 163.688095 114.521887 157.012612 117.101568 150.78471 
C 119.681249 144.556809 123.462607 138.897608 128.229236 134.130979 
C 132.995865 129.364349 138.655067 125.582992 144.882968 123.003311 
C 151.110869 120.42363 157.786352 119.095793 164.527384 119.095793 
" clip-path="url(#p135cfc28f0)" style="fill: none; stroke-dasharray: 2.96,1.28; stroke-dashoffset: 0; stroke: #cccccc; stroke-width: 0.8"/>
     </g>
     <g id="text_8">
      <!-- $\mathdefault{40}$ -->
      <g style="fill: #808080" transform="translate(164.527384 115.644867)scale(0.16 -0.16)">
       <defs>
        <path id="NimbusRomNo9L-Regu-34" d="M 3021 1497 
L 2368 1497 
L 2368 4352 
L 2086 4352 
L 77 1497 
L 77 1088 
L 1875 1088 
L 1875 32 
L 2368 32 
L 2368 1088 
L 3021 1088 
L 3021 1497 
z
M 1869 1497 
L 333 1497 
L 1869 3698 
L 1869 1497 
z
" transform="scale(0.015625)"/>
       </defs>
       <use xlink:href="#NimbusRomNo9L-Regu-34" transform="scale(0.996264)"/>
       <use xlink:href="#NimbusRomNo9L-Regu-30" transform="translate(49.8132 0)scale(0.996264)"/>
      </g>
     </g>
    </g>
    <g id="ytick_3">
     <g id="line2d_9">
      <path d="M 164.527384 93.429127 
C 174.638931 93.429127 184.652157 95.420881 193.994008 99.290403 
C 203.33586 103.159924 211.824662 108.831961 218.974606 115.981905 
C 226.12455 123.131848 231.796586 131.620651 235.666108 140.962502 
C 239.53563 150.304354 241.527384 160.317579 241.527384 170.429127 
C 241.527384 180.540674 239.53563 190.553899 235.666108 199.895751 
C 231.796586 209.237603 226.12455 217.726405 218.974606 224.876349 
C 211.824662 232.026293 203.33586 237.698329 193.994008 241.567851 
C 184.652157 245.437372 174.638931 247.429127 164.527384 247.429127 
C 154.415837 247.429127 144.402611 245.437372 135.06076 241.567851 
C 125.718908 237.698329 117.230105 232.026293 110.080162 224.876349 
C 102.930218 217.726405 97.258182 209.237603 93.38866 199.895751 
C 89.519138 190.553899 87.527384 180.540674 87.527384 170.429127 
C 87.527384 160.317579 89.519138 150.304354 93.38866 140.962502 
C 97.258182 131.620651 102.930218 123.131848 110.080162 115.981905 
C 117.230105 108.831961 125.718908 103.159924 135.06076 99.290403 
C 144.402611 95.420881 154.415837 93.429127 164.527384 93.429127 
" clip-path="url(#p135cfc28f0)" style="fill: none; stroke-dasharray: 2.96,1.28; stroke-dashoffset: 0; stroke: #cccccc; stroke-width: 0.8"/>
     </g>
     <g id="text_9">
      <!-- $\mathdefault{60}$ -->
      <g style="fill: #808080" transform="translate(164.527384 89.9782)scale(0.16 -0.16)">
       <defs>
        <path id="NimbusRomNo9L-Regu-36" d="M 2854 4391 
C 2125 4327 1754 4205 1286 3879 
C 595 3386 218 2656 218 1802 
C 218 1248 390 688 666 370 
C 909 89 1254 -64 1651 -64 
C 2445 -64 2995 541 2995 1421 
C 2995 2236 2528 2752 1792 2752 
C 1510 2752 1376 2707 973 2464 
C 1146 3431 1862 4122 2867 4288 
L 2854 4391 
z
M 1549 2458 
C 2099 2458 2419 2000 2419 1204 
C 2419 504 2170 116 1722 116 
C 1158 116 813 714 813 1700 
C 813 2025 864 2203 992 2299 
C 1126 2400 1325 2458 1549 2458 
z
" transform="scale(0.015625)"/>
       </defs>
       <use xlink:href="#NimbusRomNo9L-Regu-36" transform="scale(0.996264)"/>
       <use xlink:href="#NimbusRomNo9L-Regu-30" transform="translate(49.8132 0)scale(0.996264)"/>
      </g>
     </g>
    </g>
    <g id="ytick_4">
     <g id="line2d_10">
      <path d="M 164.527384 67.76246 
C 178.009447 67.76246 191.360414 70.418132 203.816216 75.577495 
C 216.272018 80.736857 227.590422 88.299572 237.12368 97.83283 
C 246.656938 107.366089 254.219654 118.684492 259.379016 131.140294 
C 264.538378 143.596096 267.194051 156.947064 267.194051 170.429127 
C 267.194051 183.91119 264.538378 197.262157 259.379016 209.717959 
C 254.219654 222.173761 246.656938 233.492165 237.12368 243.025423 
C 227.590422 252.558681 216.272018 260.121396 203.816216 265.280759 
C 191.360414 270.440121 178.009447 273.095793 164.527384 273.095793 
C 151.045321 273.095793 137.694354 270.440121 125.238552 265.280759 
C 112.782749 260.121396 101.464346 252.558681 91.931088 243.025423 
C 82.397829 233.492165 74.835114 222.173761 69.675752 209.717959 
C 64.51639 197.262157 61.860717 183.91119 61.860717 170.429127 
C 61.860717 156.947064 64.51639 143.596096 69.675752 131.140294 
C 74.835114 118.684492 82.397829 107.366089 91.931088 97.83283 
C 101.464346 88.299572 112.782749 80.736857 125.238552 75.577495 
C 137.694354 70.418132 151.045321 67.76246 164.527384 67.76246 
" clip-path="url(#p135cfc28f0)" style="fill: none; stroke-dasharray: 2.96,1.28; stroke-dashoffset: 0; stroke: #cccccc; stroke-width: 0.8"/>
     </g>
     <g id="text_10">
      <!-- $\mathdefault{80}$ -->
      <g style="fill: #808080" transform="translate(164.527384 64.311534)scale(0.16 -0.16)">
       <defs>
        <path id="NimbusRomNo9L-Regu-38" d="M 1856 2400 
C 2490 2740 2714 3008 2714 3444 
C 2714 3968 2253 4352 1613 4352 
C 915 4352 397 3924 397 3341 
C 397 2925 518 2740 1190 2151 
C 499 1626 358 1428 358 992 
C 358 372 864 -64 1587 -64 
C 2355 -64 2848 359 2848 1018 
C 2848 1511 2630 1824 1856 2400 
z
M 1741 1741 
C 2208 1408 2362 1178 2362 820 
C 2362 404 2074 116 1658 116 
C 1171 116 845 487 845 1044 
C 845 1453 986 1722 1357 2023 
L 1741 1741 
z
M 1670 2516 
C 1101 2887 870 3181 870 3540 
C 870 3911 1158 4173 1562 4173 
C 1997 4173 2272 3892 2272 3450 
C 2272 3085 2093 2797 1728 2554 
C 1696 2535 1696 2535 1670 2516 
z
" transform="scale(0.015625)"/>
       </defs>
       <use xlink:href="#NimbusRomNo9L-Regu-38" transform="scale(0.996264)"/>
       <use xlink:href="#NimbusRomNo9L-Regu-30" transform="translate(49.8132 0)scale(0.996264)"/>
      </g>
     </g>
    </g>
    <g id="ytick_5">
     <g id="line2d_11">
      <path d="M 164.527384 42.095793 
C 181.379963 42.095793 198.068672 45.415384 213.638424 51.864587 
C 229.208177 58.313789 243.356181 67.767184 255.272754 79.683756 
C 267.189327 91.600329 276.642721 105.748333 283.091924 121.318086 
C 289.541127 136.887839 292.860717 153.576548 292.860717 170.429127 
C 292.860717 187.281706 289.541127 203.970414 283.091924 219.540167 
C 276.642721 235.10992 267.189327 249.257924 255.272754 261.174497 
C 243.356181 273.09107 229.208177 282.544464 213.638424 288.993667 
C 198.068672 295.442869 181.379963 298.76246 164.527384 298.76246 
C 147.674805 298.76246 130.986096 295.442869 115.416343 288.993667 
C 99.846591 282.544464 85.698586 273.09107 73.782014 261.174497 
C 61.865441 249.257924 52.412047 235.10992 45.962844 219.540167 
C 39.513641 203.970414 36.194051 187.281706 36.194051 170.429127 
C 36.194051 153.576548 39.513641 136.887839 45.962844 121.318086 
C 52.412047 105.748333 61.865441 91.600329 73.782014 79.683756 
C 85.698586 67.767184 99.846591 58.313789 115.416343 51.864587 
C 130.986096 45.415384 147.674805 42.095793 164.527384 42.095793 
" clip-path="url(#p135cfc28f0)" style="fill: none; stroke-dasharray: 2.96,1.28; stroke-dashoffset: 0; stroke: #cccccc; stroke-width: 0.8"/>
     </g>
     <g id="text_11">
      <!-- $\mathdefault{100}$ -->
      <g style="fill: #808080" transform="translate(164.527384 38.644867)scale(0.16 -0.16)">
       <defs>
        <path id="NimbusRomNo9L-Regu-31" d="M 1862 4339 
L 710 3757 
L 710 3667 
C 787 3699 858 3725 883 3738 
C 998 3783 1107 3808 1171 3808 
C 1306 3808 1363 3711 1363 3505 
L 1363 592 
C 1363 379 1312 232 1210 173 
C 1114 116 1024 96 755 96 
L 755 0 
L 2522 0 
L 2522 96 
C 2016 96 1914 160 1914 470 
L 1914 4327 
L 1862 4339 
z
" transform="scale(0.015625)"/>
       </defs>
       <use xlink:href="#NimbusRomNo9L-Regu-31" transform="scale(0.996264)"/>
       <use xlink:href="#NimbusRomNo9L-Regu-30" transform="translate(49.8132 0)scale(0.996264)"/>
       <use xlink:href="#NimbusRomNo9L-Regu-30" transform="translate(99.626401 0)scale(0.996264)"/>
      </g>
     </g>
    </g>
   </g>
   <g id="patch_3">
    <path d="M 164.527384 62.425549 
L 242.479472 125.423468 
L 178.422067 178.451226 
L 164.527384 178.875731 
L 157.508908 174.481245 
L 162.023935 168.98376 
z
" clip-path="url(#p135cfc28f0)" style="fill: #e41a1c; opacity: 0.02; stroke: #ffffff; stroke-width: 0.8; stroke-linejoin: miter"/>
   </g>
   <g id="patch_4">
    <path d="M 164.527384 102.579199 
L 195.619765 152.477932 
L 173.369245 175.533977 
L 164.527384 175.704571 
L 160.373417 172.827421 
L 163.480613 169.824773 
z
" clip-path="url(#p135cfc28f0)" style="fill: #377eb8; opacity: 0.02; stroke: #ffffff; stroke-width: 0.8; stroke-linejoin: miter"/>
   </g>
   <g id="patch_5">
    <path d="M 164.527384 42.707528 
L 274.676605 106.834444 
L 275.667311 234.595793 
L 164.527384 298.76246 
L 53.387457 234.595793 
L 115.1509 141.921601 
z
" clip-path="url(#p135cfc28f0)" style="fill: #4daf4a; opacity: 0.02; stroke: #ffffff; stroke-width: 0.8; stroke-linejoin: miter"/>
   </g>
   <g id="patch_6">
    <path d="M 164.527384 43.24243 
L 273.451776 107.541599 
L 210.920324 197.214103 
L 164.527384 204.738572 
L 136.91504 186.371121 
L 136.025707 153.973676 
z
" clip-path="url(#p135cfc28f0)" style="fill: #984ea3; opacity: 0.02; stroke: #ffffff; stroke-width: 0.8; stroke-linejoin: miter"/>
   </g>
   <g id="patch_7">
    <path d="M 164.527384 44.998179 
L 264.928906 112.462281 
L 189.721014 184.974676 
L 164.527384 183.28415 
L 153.586169 176.74604 
L 157.171531 166.182223 
z
" clip-path="url(#p135cfc28f0)" style="fill: #ff7f00; opacity: 0.02; stroke: #ffffff; stroke-width: 0.8; stroke-linejoin: miter"/>
   </g>
   <g id="patch_8">
    <path d="M 164.527384 42.095793 
L 275.667311 106.26246 
L 266.303821 229.18978 
L 164.527384 245.814178 
L 97.732098 208.993403 
L 53.387457 106.26246 
z
" clip-path="url(#p135cfc28f0)" style="fill: #ffff33; opacity: 0.02; stroke: #ffffff; stroke-width: 0.8; stroke-linejoin: miter"/>
   </g>
   <g id="line2d_12">
    <path d="M 164.527384 62.425549 
L 242.479472 125.423468 
L 178.422067 178.451226 
L 164.527384 178.875731 
L 157.508908 174.481245 
L 162.023935 168.98376 
L 164.527384 62.425549 
" clip-path="url(#p135cfc28f0)" style="fill: none; stroke: #e41a1c; stroke-linecap: round"/>
    <defs>
     <path id="m413100457e" d="M 0 2.4 
C 0.636487 2.4 1.246992 2.147121 1.697056 1.697056 
C 2.147121 1.246992 2.4 0.636487 2.4 0 
C 2.4 -0.636487 2.147121 -1.246992 1.697056 -1.697056 
C 1.246992 -2.147121 0.636487 -2.4 0 -2.4 
C -0.636487 -2.4 -1.246992 -2.147121 -1.697056 -1.697056 
C -2.147121 -1.246992 -2.4 -0.636487 -2.4 0 
C -2.4 0.636487 -2.147121 1.246992 -1.697056 1.697056 
C -1.246992 2.147121 -0.636487 2.4 0 2.4 
z
" style="stroke: #e41a1c"/>
    </defs>
    <g clip-path="url(#p135cfc28f0)">
     <use xlink:href="#m413100457e" x="164.527384" y="62.425549" style="fill: #e41a1c; stroke: #e41a1c"/>
     <use xlink:href="#m413100457e" x="242.479472" y="125.423468" style="fill: #e41a1c; stroke: #e41a1c"/>
     <use xlink:href="#m413100457e" x="178.422067" y="178.451226" style="fill: #e41a1c; stroke: #e41a1c"/>
     <use xlink:href="#m413100457e" x="164.527384" y="178.875731" style="fill: #e41a1c; stroke: #e41a1c"/>
     <use xlink:href="#m413100457e" x="157.508908" y="174.481245" style="fill: #e41a1c; stroke: #e41a1c"/>
     <use xlink:href="#m413100457e" x="162.023935" y="168.98376" style="fill: #e41a1c; stroke: #e41a1c"/>
     <use xlink:href="#m413100457e" x="164.527384" y="62.425549" style="fill: #e41a1c; stroke: #e41a1c"/>
    </g>
   </g>
   <g id="line2d_13">
    <path d="M 164.527384 102.579199 
L 195.619765 152.477932 
L 173.369245 175.533977 
L 164.527384 175.704571 
L 160.373417 172.827421 
L 163.480613 169.824773 
L 164.527384 102.579199 
" clip-path="url(#p135cfc28f0)" style="fill: none; stroke: #377eb8; stroke-linecap: round"/>
    <defs>
     <path id="mb063c9750e" d="M 0 2.4 
C 0.636487 2.4 1.246992 2.147121 1.697056 1.697056 
C 2.147121 1.246992 2.4 0.636487 2.4 0 
C 2.4 -0.636487 2.147121 -1.246992 1.697056 -1.697056 
C 1.246992 -2.147121 0.636487 -2.4 0 -2.4 
C -0.636487 -2.4 -1.246992 -2.147121 -1.697056 -1.697056 
C -2.147121 -1.246992 -2.4 -0.636487 -2.4 0 
C -2.4 0.636487 -2.147121 1.246992 -1.697056 1.697056 
C -1.246992 2.147121 -0.636487 2.4 0 2.4 
z
" style="stroke: #377eb8"/>
    </defs>
    <g clip-path="url(#p135cfc28f0)">
     <use xlink:href="#mb063c9750e" x="164.527384" y="102.579199" style="fill: #377eb8; stroke: #377eb8"/>
     <use xlink:href="#mb063c9750e" x="195.619765" y="152.477932" style="fill: #377eb8; stroke: #377eb8"/>
     <use xlink:href="#mb063c9750e" x="173.369245" y="175.533977" style="fill: #377eb8; stroke: #377eb8"/>
     <use xlink:href="#mb063c9750e" x="164.527384" y="175.704571" style="fill: #377eb8; stroke: #377eb8"/>
     <use xlink:href="#mb063c9750e" x="160.373417" y="172.827421" style="fill: #377eb8; stroke: #377eb8"/>
     <use xlink:href="#mb063c9750e" x="163.480613" y="169.824773" style="fill: #377eb8; stroke: #377eb8"/>
     <use xlink:href="#mb063c9750e" x="164.527384" y="102.579199" style="fill: #377eb8; stroke: #377eb8"/>
    </g>
   </g>
   <g id="line2d_14">
    <path d="M 164.527384 42.707528 
L 274.676605 106.834444 
L 275.667311 234.595793 
L 164.527384 298.76246 
L 53.387457 234.595793 
L 115.1509 141.921601 
L 164.527384 42.707528 
" clip-path="url(#p135cfc28f0)" style="fill: none; stroke: #4daf4a; stroke-linecap: round"/>
    <defs>
     <path id="m5de6978335" d="M 0 2.4 
C 0.636487 2.4 1.246992 2.147121 1.697056 1.697056 
C 2.147121 1.246992 2.4 0.636487 2.4 0 
C 2.4 -0.636487 2.147121 -1.246992 1.697056 -1.697056 
C 1.246992 -2.147121 0.636487 -2.4 0 -2.4 
C -0.636487 -2.4 -1.246992 -2.147121 -1.697056 -1.697056 
C -2.147121 -1.246992 -2.4 -0.636487 -2.4 0 
C -2.4 0.636487 -2.147121 1.246992 -1.697056 1.697056 
C -1.246992 2.147121 -0.636487 2.4 0 2.4 
z
" style="stroke: #4daf4a"/>
    </defs>
    <g clip-path="url(#p135cfc28f0)">
     <use xlink:href="#m5de6978335" x="164.527384" y="42.707528" style="fill: #4daf4a; stroke: #4daf4a"/>
     <use xlink:href="#m5de6978335" x="274.676605" y="106.834444" style="fill: #4daf4a; stroke: #4daf4a"/>
     <use xlink:href="#m5de6978335" x="275.667311" y="234.595793" style="fill: #4daf4a; stroke: #4daf4a"/>
     <use xlink:href="#m5de6978335" x="164.527384" y="298.76246" style="fill: #4daf4a; stroke: #4daf4a"/>
     <use xlink:href="#m5de6978335" x="53.387457" y="234.595793" style="fill: #4daf4a; stroke: #4daf4a"/>
     <use xlink:href="#m5de6978335" x="115.1509" y="141.921601" style="fill: #4daf4a; stroke: #4daf4a"/>
     <use xlink:href="#m5de6978335" x="164.527384" y="42.707528" style="fill: #4daf4a; stroke: #4daf4a"/>
    </g>
   </g>
   <g id="line2d_15">
    <path d="M 164.527384 43.24243 
L 273.451776 107.541599 
L 210.920324 197.214103 
L 164.527384 204.738572 
L 136.91504 186.371121 
L 136.025707 153.973676 
L 164.527384 43.24243 
" clip-path="url(#p135cfc28f0)" style="fill: none; stroke: #984ea3; stroke-linecap: round"/>
    <defs>
     <path id="m1397a72118" d="M 0 2.4 
C 0.636487 2.4 1.246992 2.147121 1.697056 1.697056 
C 2.147121 1.246992 2.4 0.636487 2.4 0 
C 2.4 -0.636487 2.147121 -1.246992 1.697056 -1.697056 
C 1.246992 -2.147121 0.636487 -2.4 0 -2.4 
C -0.636487 -2.4 -1.246992 -2.147121 -1.697056 -1.697056 
C -2.147121 -1.246992 -2.4 -0.636487 -2.4 0 
C -2.4 0.636487 -2.147121 1.246992 -1.697056 1.697056 
C -1.246992 2.147121 -0.636487 2.4 0 2.4 
z
" style="stroke: #984ea3"/>
    </defs>
    <g clip-path="url(#p135cfc28f0)">
     <use xlink:href="#m1397a72118" x="164.527384" y="43.24243" style="fill: #984ea3; stroke: #984ea3"/>
     <use xlink:href="#m1397a72118" x="273.451776" y="107.541599" style="fill: #984ea3; stroke: #984ea3"/>
     <use xlink:href="#m1397a72118" x="210.920324" y="197.214103" style="fill: #984ea3; stroke: #984ea3"/>
     <use xlink:href="#m1397a72118" x="164.527384" y="204.738572" style="fill: #984ea3; stroke: #984ea3"/>
     <use xlink:href="#m1397a72118" x="136.91504" y="186.371121" style="fill: #984ea3; stroke: #984ea3"/>
     <use xlink:href="#m1397a72118" x="136.025707" y="153.973676" style="fill: #984ea3; stroke: #984ea3"/>
     <use xlink:href="#m1397a72118" x="164.527384" y="43.24243" style="fill: #984ea3; stroke: #984ea3"/>
    </g>
   </g>
   <g id="line2d_16">
    <path d="M 164.527384 44.998179 
L 264.928906 112.462281 
L 189.721014 184.974676 
L 164.527384 183.28415 
L 153.586169 176.74604 
L 157.171531 166.182223 
L 164.527384 44.998179 
" clip-path="url(#p135cfc28f0)" style="fill: none; stroke: #ff7f00; stroke-linecap: round"/>
    <defs>
     <path id="m8d6936f4ef" d="M 0 2.4 
C 0.636487 2.4 1.246992 2.147121 1.697056 1.697056 
C 2.147121 1.246992 2.4 0.636487 2.4 0 
C 2.4 -0.636487 2.147121 -1.246992 1.697056 -1.697056 
C 1.246992 -2.147121 0.636487 -2.4 0 -2.4 
C -0.636487 -2.4 -1.246992 -2.147121 -1.697056 -1.697056 
C -2.147121 -1.246992 -2.4 -0.636487 -2.4 0 
C -2.4 0.636487 -2.147121 1.246992 -1.697056 1.697056 
C -1.246992 2.147121 -0.636487 2.4 0 2.4 
z
" style="stroke: #ff7f00"/>
    </defs>
    <g clip-path="url(#p135cfc28f0)">
     <use xlink:href="#m8d6936f4ef" x="164.527384" y="44.998179" style="fill: #ff7f00; stroke: #ff7f00"/>
     <use xlink:href="#m8d6936f4ef" x="264.928906" y="112.462281" style="fill: #ff7f00; stroke: #ff7f00"/>
     <use xlink:href="#m8d6936f4ef" x="189.721014" y="184.974676" style="fill: #ff7f00; stroke: #ff7f00"/>
     <use xlink:href="#m8d6936f4ef" x="164.527384" y="183.28415" style="fill: #ff7f00; stroke: #ff7f00"/>
     <use xlink:href="#m8d6936f4ef" x="153.586169" y="176.74604" style="fill: #ff7f00; stroke: #ff7f00"/>
     <use xlink:href="#m8d6936f4ef" x="157.171531" y="166.182223" style="fill: #ff7f00; stroke: #ff7f00"/>
     <use xlink:href="#m8d6936f4ef" x="164.527384" y="44.998179" style="fill: #ff7f00; stroke: #ff7f00"/>
    </g>
   </g>
   <g id="line2d_17">
    <path d="M 164.527384 42.095793 
L 275.667311 106.26246 
L 266.303821 229.18978 
L 164.527384 245.814178 
L 97.732098 208.993403 
L 53.387457 106.26246 
L 164.527384 42.095793 
" clip-path="url(#p135cfc28f0)" style="fill: none; stroke: #ffff33; stroke-linecap: round"/>
    <defs>
     <path id="m5a368975b9" d="M 0 2.4 
C 0.636487 2.4 1.246992 2.147121 1.697056 1.697056 
C 2.147121 1.246992 2.4 0.636487 2.4 0 
C 2.4 -0.636487 2.147121 -1.246992 1.697056 -1.697056 
C 1.246992 -2.147121 0.636487 -2.4 0 -2.4 
C -0.636487 -2.4 -1.246992 -2.147121 -1.697056 -1.697056 
C -2.147121 -1.246992 -2.4 -0.636487 -2.4 0 
C -2.4 0.636487 -2.147121 1.246992 -1.697056 1.697056 
C -1.246992 2.147121 -0.636487 2.4 0 2.4 
z
" style="stroke: #ffff33"/>
    </defs>
    <g clip-path="url(#p135cfc28f0)">
     <use xlink:href="#m5a368975b9" x="164.527384" y="42.095793" style="fill: #ffff33; stroke: #ffff33"/>
     <use xlink:href="#m5a368975b9" x="275.667311" y="106.26246" style="fill: #ffff33; stroke: #ffff33"/>
     <use xlink:href="#m5a368975b9" x="266.303821" y="229.18978" style="fill: #ffff33; stroke: #ffff33"/>
     <use xlink:href="#m5a368975b9" x="164.527384" y="245.814178" style="fill: #ffff33; stroke: #ffff33"/>
     <use xlink:href="#m5a368975b9" x="97.732098" y="208.993403" style="fill: #ffff33; stroke: #ffff33"/>
     <use xlink:href="#m5a368975b9" x="53.387457" y="106.26246" style="fill: #ffff33; stroke: #ffff33"/>
     <use xlink:href="#m5a368975b9" x="164.527384" y="42.095793" style="fill: #ffff33; stroke: #ffff33"/>
    </g>
   </g>
   <g id="patch_9">
    <path d="M 164.527384 31.829127 
C 146.326599 31.829127 128.302793 35.414285 111.48746 42.379423 
C 94.672127 49.344562 79.392283 59.554228 66.522384 72.424127 
C 53.652485 85.294025 43.44282 100.57387 36.477681 117.389203 
C 29.512542 134.204536 25.927384 152.228341 25.927384 170.429127 
C 25.927384 188.629912 29.512542 206.653717 36.477681 223.46905 
C 43.44282 240.284383 53.652485 255.564228 66.522384 268.434127 
C 79.392283 281.304025 94.672127 291.513691 111.48746 298.47883 
C 128.302793 305.443969 146.326599 309.029127 164.527384 309.029127 
C 182.728169 309.029127 200.751975 305.443969 217.567308 298.47883 
C 234.382641 291.513691 249.662485 281.304025 262.532384 268.434127 
C 275.402282 255.564228 285.611948 240.284383 292.577087 223.46905 
C 299.542226 206.653717 303.127384 188.629912 303.127384 170.429127 
C 303.127384 152.228341 299.542226 134.204536 292.577087 117.389203 
C 285.611948 100.57387 275.402282 85.294025 262.532384 72.424127 
C 249.662485 59.554228 234.382641 49.344562 217.567308 42.379423 
C 200.751975 35.414285 182.728169 31.829127 164.527384 31.829127 
" style="fill: none; stroke: #262626; stroke-linejoin: miter; stroke-linecap: square"/>
   </g>
   <g id="legend_1">
    <g id="patch_10">
     <path d="M 347.479384 202.366433 
L 432.3485 202.366433 
Q 435.5165 202.366433 435.5165 199.198433 
L 435.5165 42.917127 
Q 435.5165 39.749127 432.3485 39.749127 
L 347.479384 39.749127 
Q 344.311384 39.749127 344.311384 42.917127 
L 344.311384 199.198433 
Q 344.311384 202.366433 347.479384 202.366433 
z
" style="fill: #ffffff; opacity: 0.8; stroke: #cccccc; stroke-width: 0.8; stroke-linejoin: miter"/>
    </g>
    <g id="text_12">
     <!-- {SGA} -->
     <g style="fill: #262626" transform="translate(372.698608 57.757025)scale(0.1728 -0.1728)">
      <defs>
       <path id="NimbusRomNo9L-Regu-47" d="M 4538 2304 
L 2906 2304 
L 2906 2176 
C 3181 2176 3258 2157 3334 2105 
C 3430 2047 3469 1898 3469 1621 
L 3469 574 
C 3469 367 3078 192 2618 192 
C 1574 192 934 922 934 2112 
C 934 2714 1114 3296 1395 3610 
C 1677 3924 2074 4096 2509 4096 
C 2867 4096 3181 3975 3430 3744 
C 3622 3565 3725 3392 3885 3002 
L 4032 3002 
L 3981 4352 
L 3840 4352 
C 3802 4231 3686 4141 3552 4141 
C 3488 4141 3386 4160 3270 4205 
C 2982 4301 2688 4352 2400 4352 
C 1120 4352 205 3412 205 2106 
C 205 1479 378 999 736 621 
C 1165 180 1779 -64 2483 -64 
C 3034 -64 3834 160 4090 385 
L 4090 1694 
C 4090 2073 4166 2157 4538 2189 
L 4538 2304 
z
" transform="scale(0.015625)"/>
      </defs>
      <use xlink:href="#NimbusRomNo9L-Regu-53" transform="scale(0.996264)"/>
      <use xlink:href="#NimbusRomNo9L-Regu-47" transform="translate(55.391677 0)scale(0.996264)"/>
      <use xlink:href="#NimbusRomNo9L-Regu-41" transform="translate(127.321662 0)scale(0.996264)"/>
     </g>
    </g>
    <g id="line2d_18">
     <path d="M 350.647384 74.948015 
L 366.487384 74.948015 
L 382.327384 74.948015 
" style="fill: none; stroke: #e41a1c; stroke-linecap: round"/>
     <g>
      <use xlink:href="#m413100457e" x="366.487384" y="74.948015" style="fill: #e41a1c; stroke: #e41a1c"/>
     </g>
    </g>
    <g id="text_13">
     <!-- ANN -->
     <g style="fill: #262626" transform="translate(394.999384 80.492015)scale(0.1584 -0.1584)">
      <defs>
       <path id="NimbusRomNo9L-Regu-4e" d="M 3917 -64 
L 3917 3287 
C 3917 3669 3981 3905 4102 3987 
C 4192 4051 4282 4077 4525 4102 
L 4525 4224 
L 3021 4224 
L 3021 4102 
C 3264 4083 3354 4057 3450 4000 
C 3578 3911 3635 3681 3635 3286 
L 3635 1136 
L 1171 4224 
L 77 4224 
L 77 4102 
C 352 4102 442 4051 698 3751 
L 698 938 
C 698 281 608 159 77 121 
L 77 0 
L 1581 0 
L 1581 134 
C 1088 134 979 281 979 928 
L 979 3439 
L 3808 -64 
L 3917 -64 
z
" transform="scale(0.015625)"/>
      </defs>
      <use xlink:href="#NimbusRomNo9L-Regu-41" transform="scale(0.996264)"/>
      <use xlink:href="#NimbusRomNo9L-Regu-4e" transform="translate(71.929985 0)scale(0.996264)"/>
      <use xlink:href="#NimbusRomNo9L-Regu-4e" transform="translate(143.85997 0)scale(0.996264)"/>
     </g>
    </g>
    <g id="line2d_19">
     <path d="M 350.647384 97.372418 
L 366.487384 97.372418 
L 382.327384 97.372418 
" style="fill: none; stroke: #377eb8; stroke-linecap: round"/>
     <g>
      <use xlink:href="#mb063c9750e" x="366.487384" y="97.372418" style="fill: #377eb8; stroke: #377eb8"/>
     </g>
    </g>
    <g id="text_14">
     <!-- EN -->
     <g style="fill: #262626" transform="translate(394.999384 102.916418)scale(0.1584 -0.1584)">
      <use xlink:href="#NimbusRomNo9L-Regu-45" transform="scale(0.996264)"/>
      <use xlink:href="#NimbusRomNo9L-Regu-4e" transform="translate(60.871631 0)scale(0.996264)"/>
     </g>
    </g>
    <g id="line2d_20">
     <path d="M 350.647384 119.796821 
L 366.487384 119.796821 
L 382.327384 119.796821 
" style="fill: none; stroke: #4daf4a; stroke-linecap: round"/>
     <g>
      <use xlink:href="#m5de6978335" x="366.487384" y="119.796821" style="fill: #4daf4a; stroke: #4daf4a"/>
     </g>
    </g>
    <g id="text_15">
     <!-- KNN -->
     <g style="fill: #262626" transform="translate(394.999384 125.340821)scale(0.1584 -0.1584)">
      <defs>
       <path id="NimbusRomNo9L-Regu-4b" d="M 2643 4109 
C 2720 4096 2784 4096 2810 4096 
C 3002 4096 3078 4045 3078 3917 
C 3078 3775 2931 3583 2579 3257 
L 1446 2224 
L 1446 3534 
C 1446 4000 1517 4071 2035 4109 
L 2035 4231 
L 218 4231 
L 218 4109 
C 717 4071 794 3988 794 3531 
L 794 750 
C 794 217 723 134 218 134 
L 218 0 
L 2022 0 
L 2022 134 
C 1523 134 1446 211 1446 683 
L 1446 1891 
L 1613 2026 
L 2291 1355 
C 2778 876 3123 422 3123 269 
C 3123 179 3034 134 2854 134 
C 2822 134 2752 134 2675 121 
L 2675 0 
L 4627 0 
L 4627 134 
C 4294 134 4205 198 3622 816 
L 2131 2409 
L 3347 3611 
C 3782 4026 3885 4077 4320 4109 
L 4320 4231 
L 2643 4231 
L 2643 4109 
z
" transform="scale(0.015625)"/>
      </defs>
      <use xlink:href="#NimbusRomNo9L-Regu-4b" transform="scale(0.996264)"/>
      <use xlink:href="#NimbusRomNo9L-Regu-4e" transform="translate(71.929985 0)scale(0.996264)"/>
      <use xlink:href="#NimbusRomNo9L-Regu-4e" transform="translate(143.85997 0)scale(0.996264)"/>
     </g>
    </g>
    <g id="line2d_21">
     <path d="M 350.647384 142.221224 
L 366.487384 142.221224 
L 382.327384 142.221224 
" style="fill: none; stroke: #984ea3; stroke-linecap: round"/>
     <g>
      <use xlink:href="#m1397a72118" x="366.487384" y="142.221224" style="fill: #984ea3; stroke: #984ea3"/>
     </g>
    </g>
    <g id="text_16">
     <!-- RF -->
     <g style="fill: #262626" transform="translate(394.999384 147.765224)scale(0.1584 -0.1584)">
      <defs>
       <path id="NimbusRomNo9L-Regu-46" d="M 3066 1472 
L 3066 2957 
L 2918 2957 
C 2842 2461 2726 2368 2214 2368 
L 1286 2368 
L 1286 3766 
C 1286 3943 1318 3981 1491 3981 
L 2362 3981 
C 3085 3981 3226 3886 3334 3314 
L 3494 3314 
L 3475 4224 
L 77 4224 
L 77 4102 
C 550 4064 634 3974 634 3525 
L 634 749 
C 634 217 563 134 77 134 
L 77 0 
L 1869 0 
L 1869 134 
C 1376 134 1286 225 1286 692 
L 1286 2106 
L 2214 2106 
C 2733 2106 2842 2007 2918 1472 
L 3066 1472 
z
" transform="scale(0.015625)"/>
      </defs>
      <use xlink:href="#NimbusRomNo9L-Regu-52" transform="scale(0.996264)"/>
      <use xlink:href="#NimbusRomNo9L-Regu-46" transform="translate(66.450031 0)scale(0.996264)"/>
     </g>
    </g>
    <g id="line2d_22">
     <path d="M 350.647384 164.645627 
L 366.487384 164.645627 
L 382.327384 164.645627 
" style="fill: none; stroke: #ff7f00; stroke-linecap: round"/>
     <g>
      <use xlink:href="#m8d6936f4ef" x="366.487384" y="164.645627" style="fill: #ff7f00; stroke: #ff7f00"/>
     </g>
    </g>
    <g id="text_17">
     <!-- SVR -->
     <g style="fill: #262626" transform="translate(394.999384 170.189627)scale(0.1584 -0.1584)">
      <defs>
       <path id="NimbusRomNo9L-Regu-56" d="M 4461 4231 
L 3149 4231 
L 3149 4096 
C 3501 4096 3616 4026 3616 3846 
C 3616 3744 3571 3572 3494 3380 
L 2554 1033 
L 1587 3199 
C 1376 3667 1325 3814 1325 3910 
C 1325 4032 1414 4096 1619 4096 
C 1645 4096 1715 4096 1805 4109 
L 1805 4231 
L 102 4231 
L 102 4096 
C 416 4096 506 4007 781 3439 
L 2355 -64 
L 2451 -64 
L 3872 3521 
C 4083 4026 4154 4096 4461 4096 
L 4461 4231 
z
" transform="scale(0.015625)"/>
      </defs>
      <use xlink:href="#NimbusRomNo9L-Regu-53" transform="scale(0.996264)"/>
      <use xlink:href="#NimbusRomNo9L-Regu-56" transform="translate(55.391677 0)scale(0.996264)"/>
      <use xlink:href="#NimbusRomNo9L-Regu-52" transform="translate(127.321662 0)scale(0.996264)"/>
     </g>
    </g>
    <g id="line2d_23">
     <path d="M 350.647384 187.07003 
L 366.487384 187.07003 
L 382.327384 187.07003 
" style="fill: none; stroke: #ffff33; stroke-linecap: round"/>
     <g>
      <use xlink:href="#m5a368975b9" x="366.487384" y="187.07003" style="fill: #ffff33; stroke: #ffff33"/>
     </g>
    </g>
    <g id="text_18">
     <!-- XGB -->
     <g style="fill: #262626" transform="translate(394.999384 192.61403)scale(0.1584 -0.1584)">
      <defs>
       <path id="NimbusRomNo9L-Regu-58" d="M 4454 4224 
L 2931 4224 
L 2931 4096 
C 3277 4096 3379 4052 3379 3904 
C 3379 3808 3309 3692 3123 3462 
L 2400 2578 
L 2131 2955 
C 1741 3500 1587 3776 1587 3917 
C 1587 4045 1683 4096 1894 4096 
L 2074 4096 
L 2074 4224 
L 141 4224 
L 141 4096 
C 557 4096 672 4000 1299 3107 
L 1997 2080 
L 992 848 
C 422 172 390 146 64 121 
L 64 0 
L 1555 0 
L 1555 134 
C 1184 134 1069 185 1069 334 
C 1069 430 1165 591 1402 886 
L 2163 1837 
L 2771 940 
C 2982 627 3098 409 3098 313 
C 3098 198 2995 134 2778 134 
C 2752 134 2682 134 2605 121 
L 2605 0 
L 4506 0 
L 4506 121 
C 4166 159 4070 223 3795 593 
L 2566 2341 
L 3501 3515 
C 3917 4018 4045 4096 4454 4096 
L 4454 4224 
z
" transform="scale(0.015625)"/>
       <path id="NimbusRomNo9L-Regu-42" d="M 109 4237 
L 109 4096 
C 646 4096 723 4026 723 3548 
L 723 689 
C 723 212 640 128 109 128 
L 109 0 
L 2246 0 
C 2746 0 3200 136 3437 356 
C 3667 564 3795 855 3795 1165 
C 3795 1451 3680 1710 3482 1897 
C 3290 2072 3117 2150 2701 2253 
C 3034 2335 3168 2398 3322 2531 
C 3482 2671 3578 2903 3578 3163 
C 3578 3871 3008 4237 1901 4237 
L 109 4237 
z
M 1376 2112 
C 1997 2112 2291 2080 2522 1982 
C 2886 1827 3059 1568 3059 1159 
C 3059 809 2925 555 2669 406 
C 2464 290 2202 238 1779 238 
C 1466 238 1376 296 1376 504 
L 1376 2112 
z
M 1376 2368 
L 1376 3812 
C 1376 3944 1421 4001 1517 4001 
L 1798 4001 
C 2534 4001 2925 3699 2925 3137 
C 2925 2646 2586 2368 1984 2368 
L 1376 2368 
z
" transform="scale(0.015625)"/>
      </defs>
      <use xlink:href="#NimbusRomNo9L-Regu-58" transform="scale(0.996264)"/>
      <use xlink:href="#NimbusRomNo9L-Regu-47" transform="translate(71.929985 0)scale(0.996264)"/>
      <use xlink:href="#NimbusRomNo9L-Regu-42" transform="translate(143.85997 0)scale(0.996264)"/>
     </g>
    </g>
   </g>
  </g>
 </g>
 <defs>
  <clipPath id="p135cfc28f0">
   <path d="M 303.127384 170.429127 
C 303.127384 152.228341 299.542226 134.204536 292.577087 117.389203 
C 285.611948 100.57387 275.402282 85.294025 262.532384 72.424127 
C 249.662485 59.554228 234.382641 49.344562 217.567308 42.379423 
C 200.751975 35.414285 182.728169 31.829127 164.527384 31.829127 
C 146.326599 31.829127 128.302793 35.414285 111.48746 42.379423 
C 94.672127 49.344562 79.392283 59.554228 66.522384 72.424127 
C 53.652485 85.294025 43.44282 100.57387 36.477681 117.389203 
C 29.512542 134.204536 25.927384 152.228341 25.927384 170.429127 
C 25.927384 188.629912 29.512542 206.653717 36.477681 223.46905 
C 43.44282 240.284383 53.652485 255.564228 66.522384 268.434127 
C 79.392283 281.304025 94.672127 291.513691 111.48746 298.47883 
C 128.302793 305.443969 146.326599 309.029127 164.527384 309.029127 
C 182.728169 309.029127 200.751975 305.443969 217.567308 298.47883 
C 234.382641 291.513691 249.662485 281.304025 262.532384 268.434127 
C 275.402282 255.564228 285.611948 240.284383 292.577087 223.46905 
C 299.542226 206.653717 303.127384 188.629912 303.127384 170.429127 
M 164.527384 170.429127 
C 164.527384 170.429127 164.527384 170.429127 164.527384 170.429127 
C 164.527384 170.429127 164.527384 170.429127 164.527384 170.429127 
C 164.527384 170.429127 164.527384 170.429127 164.527384 170.429127 
C 164.527384 170.429127 164.527384 170.429127 164.527384 170.429127 
C 164.527384 170.429127 164.527384 170.429127 164.527384 170.429127 
C 164.527384 170.429127 164.527384 170.429127 164.527384 170.429127 
C 164.527384 170.429127 164.527384 170.429127 164.527384 170.429127 
C 164.527384 170.429127 164.527384 170.429127 164.527384 170.429127 
C 164.527384 170.429127 164.527384 170.429127 164.527384 170.429127 
C 164.527384 170.429127 164.527384 170.429127 164.527384 170.429127 
C 164.527384 170.429127 164.527384 170.429127 164.527384 170.429127 
C 164.527384 170.429127 164.527384 170.429127 164.527384 170.429127 
C 164.527384 170.429127 164.527384 170.429127 164.527384 170.429127 
C 164.527384 170.429127 164.527384 170.429127 164.527384 170.429127 
C 164.527384 170.429127 164.527384 170.429127 164.527384 170.429127 
C 164.527384 170.429127 164.527384 170.429127 164.527384 170.429127 
M 303.127384 170.429127 
z
"/>
  </clipPath>
 </defs>
</svg>
